<?xml version="1.0" encoding="utf-8"?>
<!-- Generator: Adobe Illustrator 16.0.3, SVG Export Plug-In . SVG Version: 6.00 Build 0)  -->
<!DOCTYPE svg PUBLIC "-//W3C//DTD SVG 1.1//EN" "http://www.w3.org/Graphics/SVG/1.1/DTD/svg11.dtd">
<svg version="1.1" id="Layer_1" xmlns="http://www.w3.org/2000/svg" xmlns:xlink="http://www.w3.org/1999/xlink" x="0px" y="0px"
	 width="248.707px" height="152px" viewBox="0 0 248.707 152" enable-background="new 0 0 248.707 152" xml:space="preserve">
<g>
	<circle fill="#FFFFFF" cx="60.78" cy="40.592" r="18.094"/>
	<circle fill="#FFFFFF" cx="132.97" cy="40.592" r="18.094"/>
	<g>
		<g>
			<path fill="#FFFFFF" d="M60.779,64.998c10.097,0,18.431,7.502,19.479,17.502h11.465c0-17-13.854-30.944-30.944-30.944
				C43.69,51.556,29.836,65.5,29.836,82.5h11.465C42.349,72.5,50.682,64.998,60.779,64.998z"/>
			<path fill="#FFFFFF" d="M60.779,66.999c-9.15,0-16.594,7.444-16.594,16.594c0,9.15,7.444,16.595,16.594,16.595
				s16.594-7.444,16.594-16.595C77.374,74.443,69.929,66.999,60.779,66.999z"/>
		</g>
		<path fill="#FFFFFF" d="M29.836,124.502c0-17.091,13.854-30.943,30.943-30.943c17.089,0,30.944,13.853,30.944,30.943"/>
	</g>
	<g>
		<g>
			<path fill="#FFFFFF" d="M132.971,64.998c10.097,0,18.431,7.502,19.479,17.502h11.465c0-17-13.854-30.944-30.943-30.944
				c-17.089,0-30.944,13.944-30.944,30.944h11.465C114.54,72.5,122.874,64.998,132.971,64.998z"/>
			<path fill="#FFFFFF" d="M132.971,66.999c-9.15,0-16.594,7.444-16.594,16.594c0,9.15,7.444,16.595,16.594,16.595
				c9.149,0,16.594-7.444,16.594-16.595C149.564,74.443,142.12,66.999,132.971,66.999z"/>
		</g>
		<path fill="#FFFFFF" d="M102.027,124.502c0-17.091,13.854-30.943,30.944-30.943c17.089,0,30.943,13.853,30.943,30.943"/>
	</g>
</g>
<g>
	<path fill="#FFFFFF" d="M244.712,77.233c1.829-2.053,1.829-5.413,0-7.466l-31.886-35.79c-1.829-2.053-3.326-1.483-3.326,1.267V47.5
		c0,2.75-2.25,5-5,5h-10c-2.75,0-5-2.25-5-5v-42c0-2.75-2.25-5-5-5H5.5c-2.75,0-5,2.25-5,5v141c0,2.75,2.25,5,5,5h179
		c2.75,0,5-2.25,5-5v-45c0-2.75,2.25-5,5-5h10c2.75,0,5,2.25,5,5v10.256c0,2.75,1.497,3.32,3.326,1.267L244.712,77.233z
		 M179.5,136.5c0,2.75-2.25,5-5,5h-159c-2.75,0-5-2.25-5-5v-121c0-2.75,2.25-5,5-5h159c2.75,0,5,2.25,5,5V136.5z"/>
</g>
</svg>
